<svg width="18" height="18" viewBox="0 0 18 18" fill="none" xmlns="http://www.w3.org/2000/svg">
<path d="M9.44071 14.5436C9.16931 14.3792 8.829 14.3792 8.55761 14.5437L4.39532 17.0665C3.75017 17.4575 2.95263 16.8789 3.12406 16.1443L4.22755 11.4153C4.29924 11.1081 4.19529 10.7864 3.95739 10.5792L0.293637 7.38862C-0.273874 6.8944 0.031211 5.96092 0.781053 5.89724L5.60934 5.48723C5.92375 5.46053 6.19766 5.26223 6.3212 4.97188L8.21605 0.518403C8.51015 -0.172801 9.48985 -0.172801 9.78395 0.518404L11.6788 4.97188C11.8023 5.26224 12.0762 5.46053 12.3907 5.48723L17.2189 5.89724C17.9688 5.96092 18.2739 6.8944 17.7064 7.38862L14.0426 10.5792C13.8047 10.7864 13.7008 11.1081 13.7725 11.4153L14.876 16.1446C15.0474 16.8792 14.25 17.4578 13.6048 17.0668L9.44071 14.5436Z" fill="#FFC500"/>
</svg>
